<?xml version="1.0" standalone="no"?>
<!DOCTYPE svg PUBLIC "-//W3C//DTD SVG 20010904//EN"
 "http://www.w3.org/TR/2001/REC-SVG-20010904/DTD/svg10.dtd">
<svg version="1.0" xmlns="http://www.w3.org/2000/svg"
 width="1280.000000pt" height="730.000000pt" viewBox="0 0 1280.000000 730.000000"
 preserveAspectRatio="xMidYMid meet">
<metadata>
Created by potrace 1.15, written by Peter Selinger 2001-2017
</metadata>
<g transform="translate(0.000000,730.000000) scale(0.100000,-0.100000)"
fill="#000000" stroke="none">
<path d="M5639 7283 c-38 -23 -74 -83 -93 -155 -10 -35 -19 -68 -21 -74 -2 -8
-22 -7 -72 2 -155 30 -403 11 -607 -46 -238 -67 -567 -206 -634 -269 l-33 -31
-97 17 c-119 21 -458 23 -577 4 -230 -36 -377 -94 -461 -183 l-50 -53 -155 0
c-244 -1 -332 -31 -560 -192 -97 -68 -176 -113 -335 -188 -241 -114 -315 -158
-374 -221 -38 -41 -42 -50 -37 -84 l5 -38 -62 -22 c-150 -54 -271 -144 -302
-227 -12 -30 -15 -57 -10 -92 l6 -49 -67 -22 c-111 -36 -246 -106 -296 -154
-91 -88 -86 -160 18 -262 l63 -60 -54 -66 c-76 -94 -322 -274 -402 -295 -122
-32 -215 -94 -259 -175 -38 -69 -16 -236 53 -421 45 -117 86 -166 172 -203 2
-1 -23 -37 -56 -80 -162 -219 -260 -431 -312 -676 -45 -215 -34 -370 37 -512
50 -100 169 -217 281 -274 72 -38 85 -49 106 -90 40 -76 119 -191 182 -262
102 -115 197 -175 294 -187 48 -6 54 -10 128 -90 179 -198 379 -313 543 -313
l47 0 38 -67 c53 -97 100 -159 138 -182 43 -27 108 -27 151 -1 l33 21 7 -33
c12 -61 44 -115 75 -128 37 -15 94 2 116 35 l15 23 47 -47 c102 -100 360 -202
907 -356 762 -215 1175 -285 1175 -200 0 11 16 7 67 -16 355 -159 763 -240
1212 -239 142 0 215 11 242 36 14 12 23 11 78 -11 185 -75 409 -91 594 -42
113 30 251 93 355 161 79 52 70 51 197 23 399 -88 936 -17 1568 207 127 45
131 45 285 50 245 8 460 45 702 121 326 104 759 329 1142 595 96 66 214 171
538 473 344 321 428 395 489 428 128 69 213 131 306 224 104 103 173 202 227
328 78 180 104 329 112 637 9 371 60 617 141 688 18 17 66 47 105 68 88 46
101 68 71 118 -42 67 -138 136 -305 217 -54 27 -92 51 -85 53 8 2 46 9 84 15
89 14 145 29 145 41 0 16 -213 40 -360 40 -52 0 -119 3 -147 6 l-53 7 -41 76
c-72 131 -132 191 -179 176 -16 -5 -22 8 -49 93 -35 114 -67 167 -99 166 -12
0 -22 2 -22 5 1 3 7 35 15 71 25 109 30 302 11 399 -71 374 -372 515 -1165
547 l-163 6 -72 62 c-170 147 -306 241 -461 318 -178 89 -319 128 -463 128
l-74 0 -83 78 c-188 175 -429 316 -631 366 -33 9 -112 20 -175 26 -167 14
-850 23 -1019 12 l-145 -9 -140 67 c-257 124 -440 171 -665 171 -224 -1 -411
-36 -544 -103 l-40 -20 -40 45 c-45 51 -100 87 -131 87 -11 0 -32 -8 -46 -17z"/>
</g>
</svg>
